<?xml version="1.0" encoding="UTF-8"?>
<svg width="32px" height="32px" viewBox="0 0 32 32" version="1.1" xmlns="http://www.w3.org/2000/svg" xmlns:xlink="http://www.w3.org/1999/xlink">
    <!-- Generator: sketchtool 64 (101010) - https://sketch.com -->
    <title>ADF91160-0CF8-4986-BA88-DDE56E1B4078</title>
    <desc>Created with sketchtool.</desc>
    <g id="Account" stroke="none" stroke-width="1" fill="none" fill-rule="evenodd">
        <g id="7.1.A.2.-Profile_Default_My-Competititon" transform="translate(-89.000000, -141.000000)">
            <g id="Group_2" transform="translate(90.000000, 142.000000)">
                <circle id="Oval" stroke="#FFFFFF" stroke-width="2" fill="#FA262F" fill-rule="nonzero" stroke-linejoin="round" cx="15" cy="15" r="15"></circle>
                <g id="baseline-photo_camera-24px" transform="translate(3.870968, 5.000000)">
                    <g id="Group">
                        <ellipse id="Oval-2" fill="#FFFFFF" fill-rule="nonzero" cx="11.2402437" cy="11.1112187" rx="2.53456221" ry="2.5"></ellipse>
                        <path d="M18.133369,17.6112187 L4.34593986,17.6112187 C3.39487214,17.6102771 2.62403117,16.8650684 2.62273217,15.9453119 L2.62273217,5.94474201 C2.62370591,5.02467038 3.39454711,4.27895169 4.34593986,4.27769546 L7.07791194,4.27769546 L8.65499021,2.61121873 L13.8249079,2.61121873 L15.4016915,4.27769546 L18.1330744,4.27769546 C19.0850424,4.27816653 19.8567801,5.02411479 19.8577552,5.94474201 L19.8577552,15.9453119 C19.8564551,16.865513 19.0848969,17.6109053 18.133369,17.6112187 Z M11.2393598,6.77783794 C8.85993914,6.77799525 6.93119334,8.64346604 6.93119334,10.944552 C6.93119334,13.2456381 8.86013558,15.1110763 11.2395563,15.1110763 C13.618977,15.1110763 15.5479529,13.2458281 15.5481156,10.944742 C15.5455186,8.6446418 13.6183498,6.78053631 11.2399491,6.77755299 L11.2393598,6.77783794 Z" id="Shape" fill="#FFFFFF" fill-rule="nonzero"></path>
                        <polygon id="Shape-2" points="0.595082401 0.611218734 20.8715801 0.611218734 20.8715801 20.6112187 0.595082401 20.6112187"></polygon>
                    </g>
                </g>
            </g>
        </g>
    </g>
</svg>