<?xml version="1.0" encoding="UTF-8"?>
<svg width="16px" height="15px" viewBox="0 0 16 15" version="1.1" xmlns="http://www.w3.org/2000/svg" xmlns:xlink="http://www.w3.org/1999/xlink">
    <!-- Generator: sketchtool 64 (101010) - https://sketch.com -->
    <title>A3172CB2-4DD9-4F99-8E98-0EB58E24C6AB</title>
    <desc>Created with sketchtool.</desc>
    <defs>
        <linearGradient x1="19.1980834%" y1="16.0161328%" x2="84.3333688%" y2="94.8753463%" id="linearGradient-1">
            <stop stop-color="#ED273D" offset="0%"></stop>
            <stop stop-color="#700415" offset="100%"></stop>
        </linearGradient>
    </defs>
    <g id="Search" stroke="none" stroke-width="1" fill="none" fill-rule="evenodd">
        <g id="3.1-search---user" transform="translate(-133.000000, -384.000000)" fill-rule="nonzero">
            <g id="Group-10" transform="translate(133.166667, 384.000000)">
                <path d="M7.88148148,1.48029737e-15 C3.53545828,1.48029737e-15 -1.71878972e-14,3.34938153 -1.71878972e-14,7.46666667 C-1.71878972e-14,11.5839518 3.53545828,14.9333333 7.88148148,14.9333333 C12.2275047,14.9333333 15.762963,11.5839518 15.762963,7.46666667 C15.762963,3.34938153 12.2275047,1.48029737e-15 7.88148148,1.48029737e-15 Z" id="Path" fill="url(#linearGradient-1)"></path>
                <path d="M11.0435438,6.06230467 L6.77436792,10.1066731 C6.64628905,10.2280111 6.47816298,10.2890788 6.31003688,10.2890788 C6.14191078,10.2890788 5.97378471,10.2280111 5.84570583,10.1066731 L3.71117802,8.08448891 C3.45429868,7.84124349 3.45429868,7.44794919 3.71117802,7.20470377 C3.96793708,6.96134439 4.38296078,6.96134439 4.63984012,7.20470377 L6.31003688,8.78699544 L10.1148817,5.18251953 C10.3716408,4.93916016 10.7866645,4.93916016 11.0435438,5.18251953 C11.3003029,5.42576495 11.3003029,5.8189453 11.0435438,6.06230467 Z" id="Path" fill="#FAFAFA"></path>
            </g>
        </g>
    </g>
</svg>