<?xml version="1.0" encoding="UTF-8"?>
<svg width="22px" height="22px" viewBox="0 0 22 22" version="1.1" xmlns="http://www.w3.org/2000/svg" xmlns:xlink="http://www.w3.org/1999/xlink">
    <!-- Generator: sketchtool 64 (101010) - https://sketch.com -->
    <title>99B8C67C-40F1-4DAF-B70A-A8160271D919</title>
    <desc>Created with sketchtool.</desc>
    <g id="Account" stroke="none" stroke-width="1" fill="none" fill-rule="evenodd">
        <g id="7.1.A.2.-Profile_Default_My-Competititon" transform="translate(-339.000000, -43.000000)" fill="#FFFFFF" fill-rule="nonzero">
            <g id="gear" transform="translate(339.000000, 43.000000)">
                <path d="M20.0321411,8.04149779 L18.978772,7.8628601 C18.8850037,7.60182494 18.7790405,7.34573365 18.6618713,7.09672852 L19.2821594,6.22891848 C19.8218628,5.47069701 19.7351807,4.44666139 19.0781433,3.79605104 L17.8123535,2.53009642 C17.4545837,2.17232668 16.980304,1.97523191 16.4770203,1.97523191 C16.0806885,1.97523191 15.7016602,2.09734498 15.383606,2.32624512 L14.5125,2.94669799 C14.2430603,2.81931152 13.9696655,2.70675658 13.694458,2.6095276 L13.5202698,1.57741699 C13.3670105,0.66329955 12.5829163,0 11.65578,0 L9.86742553,0 C8.9404541,0 8.15635988,0.66329955 8.0034302,1.57560424 L7.82034303,2.64808959 C7.56177981,2.74251707 7.30684205,2.84979857 7.05717773,2.96960449 L6.20189207,2.35360105 C5.88120117,2.12272338 5.50068971,2.00077514 5.1013916,2.00077514 C4.59316406,2.00077514 4.11871947,2.19819947 3.76490481,2.55679322 L2.49614869,3.82142943 C1.84092408,4.47665404 1.7550659,5.49986574 2.29213256,6.25429688 L2.92247317,7.13990481 C2.80629271,7.38989869 2.70181275,7.64714355 2.6095276,7.90966185 L1.57725221,8.08385012 C0.66329955,8.23727416 2.39808173e-15,9.02136842 2.39808173e-15,9.94833984 L2.39808173e-15,11.7366943 C2.39808173e-15,12.6636658 0.66329955,13.44776 1.57560424,13.6008545 L2.64808959,13.7837768 C2.74251707,14.0425049 2.8499634,14.2976074 2.96960449,14.5471069 L2.3559082,15.4007447 C1.81620482,16.1589661 1.90288697,17.1831665 2.55992434,17.8336121 L3.82571412,19.0995667 C4.18348387,19.4573364 4.65776367,19.6544311 5.16104738,19.6544311 C5.55737916,19.6544311 5.93640748,19.5323181 6.25429687,19.3035828 L7.13990481,18.6732422 C7.37259519,18.7813477 7.61385496,18.8803894 7.86154174,18.9695435 L8.03704832,20.0227478 C8.1904724,20.9367005 8.97456666,21.6 9.90153809,21.6 L11.6940124,21.6 C12.6209839,21.6 13.4052429,20.9367005 13.5583374,20.0239014 L13.7369751,18.9703674 C13.9980103,18.8765991 14.2541016,18.770636 14.5031067,18.6534668 L15.3681152,19.2717773 C15.6888061,19.502655 16.0693176,19.6247681 16.4686157,19.6247681 C16.9717346,19.6247681 17.4460144,19.4276733 17.8037842,19.0699036 L19.069574,17.803949 C19.7249634,17.1487244 19.8106568,16.1255127 19.2735901,15.3710815 L18.6526428,14.4991516 C18.7729431,14.2443787 18.8792358,13.9884521 18.970697,13.7340088 L20.022583,13.558667 C20.9365357,13.4052429 21.5999563,12.6211487 21.5999563,11.6941772 L21.5999563,9.90944824 C21.6102173,8.98148803 20.9516968,8.19640502 20.0321411,8.04149779 Z M20.3342729,11.6941772 C20.3342729,12.000531 20.1150329,12.2597534 19.8137878,12.3103454 L18.418634,12.5428711 C18.1612244,12.5857178 17.9535828,12.7673218 17.8762939,13.0169861 C17.7523682,13.4185913 17.582135,13.8290954 17.3707031,14.2364685 C17.251062,14.4661926 17.2701782,14.739917 17.4204712,14.9505249 L18.2426331,16.1050781 C18.4199524,16.354248 18.3914429,16.6924072 18.1747376,16.9091126 L16.9089478,18.1749023 C16.7884827,18.2953674 16.6362122,18.3591431 16.4686157,18.3591431 C16.3364502,18.3591431 16.2117004,18.3195923 16.1059021,18.243457 L14.9562927,17.4217896 C14.7448608,17.2700134 14.4699829,17.2508972 14.2391052,17.3716919 C13.8524963,17.57406 13.4416626,17.7442932 13.0179749,17.8772827 C12.7707825,17.9547363 12.590332,18.1617188 12.5473206,18.4164917 L12.3103454,19.8131287 C12.2597534,20.1151978 12.000531,20.334375 11.6940124,20.334375 L9.90153809,20.334375 C9.59501953,20.334375 9.33596191,20.1151978 9.28536986,19.8139526 L9.05284426,18.4187988 C9.01032715,18.1630371 8.83037109,17.9557251 8.58317871,17.8776123 C8.1655884,17.7457764 7.76793822,17.5822998 7.40093996,17.3916321 C7.30090943,17.3397217 7.19263918,17.3141785 7.08486328,17.3141785 C6.94544676,17.3141785 6.80668945,17.3570251 6.68787232,17.441565 L5.51766355,18.2744385 C5.4121948,18.3504089 5.2922241,18.3888061 5.16104738,18.3888061 C4.99345092,18.3888061 4.84118041,18.3251953 4.72071535,18.2045654 L3.45261842,16.9366333 C3.2362427,16.7223999 3.20872193,16.3852295 3.38521731,16.1372131 L4.20243529,15.0004578 C4.35618894,14.7870483 4.37497559,14.5101929 4.2510498,14.2773376 C4.04324342,13.8875977 3.87103269,13.4789063 3.73903197,13.0624695 C3.6609192,12.8169251 3.45476074,12.6374634 3.20097656,12.5941223 L1.78670652,12.3530273 C1.48480222,12.3022705 1.265625,12.0430481 1.265625,11.7366943 L1.265625,9.94833984 C1.265625,9.64198607 1.48480222,9.38276367 1.78720092,9.33200684 L3.16521607,9.09948119 C3.42279051,9.05614012 3.63026732,8.87404174 3.70689699,8.62355346 C3.83692018,8.19805299 4.00418699,7.78656004 4.20408326,7.40093996 C4.32306517,7.17171022 4.30394896,6.89864504 4.15415039,6.68787233 L3.32325442,5.5204651 C3.14577025,5.27129518 3.17427981,4.933136 3.39032592,4.71708984 L4.66040039,3.45130006 L4.66501465,3.44652098 C4.77921752,3.33034057 4.93412475,3.26640014 5.1013916,3.26640014 C5.23355715,3.26640014 5.35847168,3.30595092 5.46229246,3.38076783 L6.60399168,4.20260012 C6.81773072,4.35651855 7.09491576,4.37497559 7.32694701,4.2510498 C7.71668699,4.04324342 8.1253784,3.87103269 8.54132082,3.73919676 C8.78686523,3.66124877 8.96632689,3.45541992 9.00999754,3.20097656 L9.2512573,1.78670652 C9.30184935,1.48480223 9.56107176,1.265625 9.86759035,1.265625 L11.6559448,1.265625 C11.9622986,1.265625 12.221521,1.48480223 12.2722779,1.78720092 L12.5048035,3.16571043 C12.5483093,3.42344973 12.7307373,3.63076172 12.9813904,3.70722656 C13.4087036,3.83708496 13.8348633,4.01242676 14.2483337,4.2286377 C14.4780579,4.3486084 14.7517822,4.32982176 14.9633789,4.179364 L16.1205689,3.35522461 C16.2258728,3.27925416 16.3458435,3.24085691 16.477185,3.24085691 C16.6446167,3.24085691 16.7968872,3.30446777 16.9175171,3.42509766 L18.1854492,4.69302981 C18.4018249,4.90726316 18.4295105,5.24443359 18.2518616,5.4937683 L17.4293701,6.64453125 C17.278418,6.85612793 17.2596314,7.13067629 17.3800964,7.36072996 C17.5826294,7.74733887 17.7526978,8.1581726 17.8858521,8.58202514 C17.9634704,8.82921752 18.1702881,9.00950318 18.4250611,9.05251465 L19.8205444,9.28932494 L19.821698,9.28948973 C20.1227783,9.34008178 20.3384949,9.59551393 20.3342729,9.89692383 L20.3342729,11.6941772 Z" id="Shape"></path>
                <path d="M10.8,6.60036621 C8.48430176,6.60036621 6.60036621,8.48430176 6.60036621,10.8 C6.60036621,13.1156982 8.48430176,14.9996338 10.8,14.9996338 C13.1156982,14.9996338 14.9996338,13.1156982 14.9996338,10.8 C14.9996338,8.48430176 13.1156982,6.60036621 10.8,6.60036621 Z M10.8,13.7340088 C9.18220826,13.7340088 7.86599121,12.4177917 7.86599121,10.8 C7.86599121,9.18220826 9.18220826,7.86599121 10.8,7.86599121 C12.4177917,7.86599121 13.7340088,9.18220826 13.7340088,10.8 C13.7340088,12.4177917 12.4177917,13.7340088 10.8,13.7340088 Z" id="Shape"></path>
            </g>
        </g>
    </g>
</svg>