<?xml version="1.0" encoding="UTF-8"?>
<svg width="27px" height="27px" viewBox="0 0 27 27" version="1.1" xmlns="http://www.w3.org/2000/svg" xmlns:xlink="http://www.w3.org/1999/xlink">
    <!-- Generator: sketchtool 64 (101010) - https://sketch.com -->
    <title>4975B3A1-6663-480C-91BC-46F36D9848B5</title>
    <desc>Created with sketchtool.</desc>
    <g id="Competition" stroke="none" stroke-width="1" fill="none" fill-rule="evenodd">
        <g id="1.-Competition_All" transform="translate(-99.000000, -675.000000)" fill="#FFFFFF" fill-rule="nonzero">
            <g id="rank-(1)" transform="translate(99.000000, 675.000000)">
                <path d="M23.0449219,3.21679688 C21.3002578,3.21679688 19.8808594,4.63619531 19.8808594,6.38085938 C19.8808594,8.12552344 21.3002578,9.54492188 23.0449219,9.54492188 C24.7895859,9.54492188 26.2089844,8.12552344 26.2089844,6.38085938 C26.2089844,4.63619531 24.7895859,3.21679688 23.0449219,3.21679688 Z M23.0449219,7.96289062 C22.1725898,7.96289062 21.4628906,7.25319141 21.4628906,6.38085938 C21.4628906,5.50852734 22.1725898,4.79882812 23.0449219,4.79882812 C23.9172539,4.79882812 24.6269531,5.50852734 24.6269531,6.38085938 C24.6269531,7.25319141 23.9172539,7.96289062 23.0449219,7.96289062 Z" id="Shape"></path>
                <path d="M7.11914063,20.6191406 L0.791015625,20.6191406 C0.354164063,20.6191406 0,20.9733047 0,21.4101562 L0,26.2089844 C0,26.6458359 0.354164063,27 0.791015625,27 L7.11914063,27 C7.55599219,27 7.91015625,26.6458359 7.91015625,26.2089844 L7.91015625,21.4101562 C7.91015625,20.9733047 7.55599219,20.6191406 7.11914063,20.6191406 Z" id="Shape"></path>
                <path d="M16.7167969,14.2910156 L10.2832031,14.2910156 C9.84635156,14.2910156 9.4921875,14.6451797 9.4921875,15.0820312 L9.4921875,26.2089844 C9.4921875,26.6458359 9.84635156,27 10.2832031,27 L16.7167969,27 C17.1536484,27 17.5078125,26.6458359 17.5078125,26.2089844 L17.5078125,15.0820312 C17.5078125,14.6451797 17.1536484,14.2910156 16.7167969,14.2910156 Z" id="Shape"></path>
                <path d="M26.2089844,17.4550781 L19.8808594,17.4550781 C19.4440078,17.4550781 19.0898438,17.8092422 19.0898438,18.2460938 L19.0898438,26.2089844 C19.0898438,26.6458359 19.4440078,27 19.8808594,27 L26.2089844,27 C26.6458359,27 27,26.6458359 27,26.2089844 L27,18.2460938 C27,17.8092422 26.6458359,17.4550781 26.2089844,17.4550781 Z" id="Shape"></path>
                <path d="M23.0449219,9.54492188 C20.8640918,9.54492188 19.0898438,11.3191699 19.0898438,13.5 L19.0898438,15.0820312 C19.0898438,15.5188828 19.4440078,15.8730469 19.8808594,15.8730469 L26.2089844,15.8730469 C26.6458359,15.8730469 27,15.5188828 27,15.0820312 L27,13.5 C27,11.3191699 25.225752,9.54492188 23.0449219,9.54492188 Z M25.4179688,14.2910156 L20.671875,14.2910156 L20.671875,13.5 C20.671875,12.191502 21.7364238,11.1269531 23.0449219,11.1269531 C24.3534199,11.1269531 25.4179688,12.191502 25.4179688,13.5 L25.4179688,14.2910156 Z" id="Shape"></path>
                <path d="M13.5,0 C11.7563379,0 10.2832031,1.47313477 10.2832031,3.21679688 C10.2832031,4.97733398 11.7619277,6.38085938 13.5,6.38085938 C15.2411836,6.38085938 16.7167969,4.97411719 16.7167969,3.21679688 C16.7167969,1.47313477 15.2436621,0 13.5,0 Z M13.5,4.79882812 C12.6138516,4.79882812 11.8652344,4.07436328 11.8652344,3.21679688 C11.8652344,2.34594141 12.6291445,1.58203125 13.5,1.58203125 C14.3708555,1.58203125 15.1347656,2.34594141 15.1347656,3.21679688 C15.1347656,4.07436328 14.3861484,4.79882812 13.5,4.79882812 Z" id="Shape"></path>
                <path d="M13.5,6.38085938 C11.3134746,6.38085938 9.4921875,8.14930664 9.4921875,10.3359375 L9.4921875,11.9179688 C9.4921875,12.3548203 9.84635156,12.7089844 10.2832031,12.7089844 L16.7167969,12.7089844 C17.1536484,12.7089844 17.5078125,12.3548203 17.5078125,11.9179688 L17.5078125,10.3359375 C17.5078125,8.14941211 15.6866309,6.38085938 13.5,6.38085938 Z M15.9257812,11.1269531 L11.0742188,11.1269531 L11.0742188,10.3359375 C11.0742188,9.04958789 12.1850684,7.96289062 13.5,7.96289062 C14.8149316,7.96289062 15.9257812,9.04958789 15.9257812,10.3359375 L15.9257812,11.1269531 Z" id="Shape"></path>
                <path d="M3.95507812,6.38085938 C2.21041406,6.38085938 0.791015625,7.80025781 0.791015625,9.54492188 C0.791015625,11.2895859 2.21041406,12.7089844 3.95507812,12.7089844 C5.69974219,12.7089844 7.11914062,11.2895859 7.11914062,9.54492188 C7.11914062,7.80025781 5.69974219,6.38085938 3.95507812,6.38085938 Z M3.95507812,11.1269531 C3.08274609,11.1269531 2.37304688,10.4172539 2.37304688,9.54492188 C2.37304688,8.67258984 3.08274609,7.96289062 3.95507812,7.96289062 C4.82741016,7.96289062 5.53710938,8.67258984 5.53710938,9.54492188 C5.53710938,10.4172539 4.82741016,11.1269531 3.95507812,11.1269531 Z" id="Shape"></path>
                <path d="M3.95507813,12.7089844 C1.77424805,12.7089844 0,14.4832324 0,16.6640625 L0,18.2460938 C0,18.6829453 0.354164063,19.0371094 0.791015625,19.0371094 L7.11914063,19.0371094 C7.55599219,19.0371094 7.91015625,18.6829453 7.91015625,18.2460938 L7.91015625,16.6640625 C7.91015625,14.4832324 6.1359082,12.7089844 3.95507813,12.7089844 Z M6.328125,17.4550781 L1.58203125,17.4550781 L1.58203125,16.6640625 C1.58203125,15.3555645 2.64658008,14.2910156 3.95507812,14.2910156 C5.26357617,14.2910156 6.328125,15.3555645 6.328125,16.6640625 L6.328125,17.4550781 Z" id="Shape"></path>
            </g>
        </g>
    </g>
</svg>