<?xml version="1.0" encoding="UTF-8"?>
<svg width="21px" height="21px" viewBox="0 0 21 21" version="1.1" xmlns="http://www.w3.org/2000/svg" xmlns:xlink="http://www.w3.org/1999/xlink">
    <!-- Generator: sketchtool 64 (101010) - https://sketch.com -->
    <title>626AC1F8-5001-4D81-804E-F125AC38A25A</title>
    <desc>Created with sketchtool.</desc>
    <g id="Account" stroke="none" stroke-width="1" fill="none" fill-rule="evenodd">
        <g id="7.1.A.8.-Profile_settings" transform="translate(-14.000000, -154.000000)">
            <g id="baseline-error_outline-24px" transform="translate(12.000000, 152.000000)">
                <polygon id="Path" points="0 0 25 0 25 25 0 25"></polygon>
                <path d="M11.45,15.65 L13.55,15.65 L13.55,17.75 L11.45,17.75 L11.45,15.65 Z M11.45,7.25 L13.55,7.25 L13.55,13.55 L11.45,13.55 L11.45,7.25 Z M12.4895,2 C6.6935,2 2,6.704 2,12.5 C2,18.296 6.6935,23 12.4895,23 C18.296,23 23,18.296 23,12.5 C23,6.704 18.296,2 12.4895,2 Z M12.5,20.9 C7.859,20.9 4.1,17.141 4.1,12.5 C4.1,7.859 7.859,4.1 12.5,4.1 C17.141,4.1 20.9,7.859 20.9,12.5 C20.9,17.141 17.141,20.9 12.5,20.9 Z" id="Shape" fill="#FFFFFF" fill-rule="nonzero"></path>
            </g>
        </g>
    </g>
</svg>