<?xml version="1.0" encoding="UTF-8"?>
<svg width="20px" height="14px" viewBox="0 0 20 14" version="1.1" xmlns="http://www.w3.org/2000/svg" xmlns:xlink="http://www.w3.org/1999/xlink">
    <!-- Generator: sketchtool 64 (101010) - https://sketch.com -->
    <title>28CBEE65-4463-4901-BFA9-1FA9092A53E0</title>
    <desc>Created with sketchtool.</desc>
    <g id="IOS/MWeb" stroke="none" stroke-width="1" fill="none" fill-rule="evenodd">
        <g id="7.8.-Login-with-R+_Native-Login" transform="translate(-300.000000, -253.000000)" fill="#FFFFFF" fill-rule="nonzero">
            <g id="white_baseline-visibility-24px" transform="translate(300.000000, 253.000000)">
                <path d="M9.9609375,0 C5.43323864,0 1.53941761,2.71163504 0,6.56040737 C1.53941761,10.4091797 5.43323864,13.1208147 9.9609375,13.1208147 C14.4886364,13.1208147 18.3824574,10.4091797 19.921875,6.56040737 C18.3824574,2.71163504 14.4886364,0 9.9609375,0 Z M9.9609375,10.9340123 C7.42542614,10.9340123 5.43323864,9.00962612 5.43323864,6.56040737 C5.43323864,4.11118862 7.42542614,2.18680246 9.9609375,2.18680246 C12.4964489,2.18680246 14.4886364,4.11118862 14.4886364,6.56040737 C14.4886364,9.00962612 12.4964489,10.9340123 9.9609375,10.9340123 Z M9.9609375,3.93624442 C8.42151989,3.93624442 7.24431818,5.0733817 7.24431818,6.56040737 C7.24431818,8.04743304 8.42151989,9.18457031 9.9609375,9.18457031 C11.5003551,9.18457031 12.6775568,8.04743304 12.6775568,6.56040737 C12.6775568,5.0733817 11.5003551,3.93624442 9.9609375,3.93624442 Z" id="Shape"></path>
            </g>
        </g>
    </g>
</svg>