<?xml version="1.0" encoding="UTF-8"?>
<svg width="10px" height="8px" viewBox="0 0 10 8" version="1.1" xmlns="http://www.w3.org/2000/svg" xmlns:xlink="http://www.w3.org/1999/xlink">
    <!-- Generator: sketchtool 64 (101010) - https://sketch.com -->
    <title>87D2E415-5A30-4443-8B02-D630AFC67E08</title>
    <desc>Created with sketchtool.</desc>
    <defs>
        <linearGradient x1="19.1994524%" y1="12.135259%" x2="84.3318429%" y2="100%" id="linearGradient-1">
            <stop stop-color="#ED273D" offset="0%"></stop>
            <stop stop-color="#FF5971" offset="100%"></stop>
        </linearGradient>
        <linearGradient x1="19.1980834%" y1="38.0489119%" x2="84.3333688%" y2="65.7812886%" id="linearGradient-2">
            <stop stop-color="#ED273D" offset="0%"></stop>
            <stop stop-color="#FF5971" offset="100%"></stop>
        </linearGradient>
    </defs>
    <g id="Competition" stroke="none" stroke-width="1" fill="none" fill-rule="evenodd">
        <g id="3.2-Competition_All-videos_skroll" transform="translate(-195.000000, -330.000000)" fill-rule="nonzero">
            <g id="viewer" transform="translate(195.000000, 330.000000)">
                <path d="M4.7622476,4.01813071 C3.83910067,4.01813071 3.08806367,4.76918631 3.08806367,5.69235184 C3.08806367,6.61551737 3.83910067,7.36657297 4.7622476,7.36657297 C5.68539452,7.36657297 6.43643152,6.61551737 6.43643152,5.69235184 C6.43643152,4.76918631 5.68539452,4.01813071 4.7622476,4.01813071 Z M4.7622476,6.62247469 C4.24937786,6.62247469 3.83214335,6.20522158 3.83214335,5.69235184 C3.83214335,5.1794821 4.24937786,4.76222899 4.7622476,4.76222899 C5.27511733,4.76222899 5.69235184,5.1794821 5.69235184,5.69235184 C5.69235184,6.20522158 5.27511733,6.62247469 4.7622476,6.62247469 Z" id="Shape" fill="url(#linearGradient-1)"></path>
                <path d="M9.4844441,4.81107904 C9.0741111,3.9983563 8.42384362,3.30986076 7.60351247,2.81910935 L8.61059368,1.81200953 C8.75587887,1.66672434 8.75587887,1.43116143 8.61061229,1.28585764 C8.46530849,1.14057245 8.22976418,1.14057245 8.08444179,1.28585764 L6.90298114,2.46735549 C6.34613519,2.23688965 5.74843825,2.09826414 5.13427813,2.05836187 L5.13427813,0.37204914 C5.13427813,0.1665664 4.96771173,0 4.76222899,0 C4.55674625,0 4.39017985,0.1665664 4.39017985,0.37204914 L4.39017985,2.05834326 C3.77601973,2.09824554 3.17832279,2.23687104 2.62147684,2.46733688 L1.4400162,1.28583903 C1.2947124,1.14053524 1.05913089,1.14053524 0.9138457,1.28583903 C0.768579114,1.43112422 0.768579114,1.66668714 0.913864303,1.81199093 L1.92094552,2.81909074 C1.10061437,3.30984216 0.450346882,3.9983377 0.040013885,4.81106044 C-0.0525891459,4.99449927 0.0210393789,5.21824962 0.204459605,5.31087126 C0.387824024,5.40349289 0.611667389,5.32988297 0.704251817,5.14644414 C1.39436577,3.77959141 2.9323053,2.79036855 4.7622476,2.79036855 C6.59356647,2.79036855 8.1307247,3.78078196 8.82022477,5.14646274 C8.91299522,5.33019921 9.13687579,5.40336267 9.32001698,5.31088986 C9.50345581,5.21826823 9.57708434,4.99449927 9.4844441,4.81107904 Z" id="Path" fill="url(#linearGradient-2)"></path>
            </g>
        </g>
    </g>
</svg>