<?xml version="1.0" encoding="UTF-8"?>
<svg width="21px" height="21px" viewBox="0 0 21 21" version="1.1" xmlns="http://www.w3.org/2000/svg" xmlns:xlink="http://www.w3.org/1999/xlink">
    <!-- Generator: sketchtool 64 (101010) - https://sketch.com -->
    <title>8DF1EEF9-0070-4D73-B0DE-BB25AC26CEB7</title>
    <desc>Created with sketchtool.</desc>
    <g id="Account" stroke="none" stroke-width="1" fill="none" fill-rule="evenodd">
        <g id="7.1.A.8.-Profile_settings" transform="translate(-14.000000, -291.000000)" fill="#FFFFFF" fill-rule="nonzero">
            <path d="M24,308 L26,308 L26,306 L24,306 L24,308 Z M24.5,291 C18.725,291 14,295.725 14,301.5 C14,307.275 18.725,312 24.5,312 C30.275,312 35,307.275 35,301.5 C35,295.725 30.275,291 24.5,291 Z M24.5,310 C19.825,310 16,306.175 16,301.5 C16,296.825 19.825,293 24.5,293 C29.175,293 33,296.825 33,301.5 C33,306.175 29.175,310 24.5,310 Z M25,295 C22.8,295 21,297 21,299.444444 L23,299.444444 C23,298.222222 23.9,297.222222 25,297.222222 C26.1,297.222222 27,298.222222 27,299.444444 C27,301.666667 24,301.444444 24,305 L26,305 C26,302.555556 29,302.222222 29,299.444444 C29,297 27.2,295 25,295 Z" id="Shape"></path>
        </g>
    </g>
</svg>