<?xml version="1.0" encoding="UTF-8"?>
<svg width="27px" height="26px" viewBox="0 0 27 26" version="1.1" xmlns="http://www.w3.org/2000/svg" xmlns:xlink="http://www.w3.org/1999/xlink">
    <!-- Generator: sketchtool 64 (101010) - https://sketch.com -->
    <title>4FBD161D-455C-4385-B0F7-4C09D91B982B</title>
    <desc>Created with sketchtool.</desc>
    <g id="Competition" stroke="none" stroke-width="1" fill="none" fill-rule="evenodd">
        <g id="1.-Competition_All" transform="translate(-24.000000, -676.000000)" fill="#8F8F8F" fill-rule="nonzero">
            <g id="sydney-opera-house" transform="translate(24.000000, 676.000000)">
                <path d="M26.3515013,11.3532135 L24.0873392,9.29016827 L24.0873392,2.44931327 C24.0873392,2.01404847 23.7344685,1.66112541 23.2991513,1.66112541 L17.8490498,1.66112541 C17.413785,1.66112541 17.0608619,2.01399612 17.0608619,2.44931327 L17.0608619,2.88766653 L14.3264672,0.396109286 C13.7986531,-0.0849067347 13.0027179,-0.0848543878 12.4751131,0.396056939 L0.45007898,11.3532658 C0.027325102,11.7385393 -0.112388878,12.3321536 0.0941721429,12.8655165 C0.30078551,13.3988795 0.803839592,13.7434794 1.37583459,13.7434794 L3.29639143,13.7434794 L3.29639143,24.7217317 C3.29639143,25.1569965 3.64926214,25.5099719 4.08457929,25.5099719 L10.6757394,25.5099719 C11.1110042,25.5099719 11.4639272,25.1570489 11.4639272,24.7217317 L11.4639272,18.0560819 L15.3376531,18.0560819 L15.3376531,24.7217841 C15.3376531,25.1570489 15.6905238,25.5099719 16.1258409,25.5099719 L22.7167393,25.5099719 C23.1520041,25.5099719 23.5049271,25.1571012 23.5048748,24.7217841 L23.5048748,13.7435317 L25.4258504,13.7435317 C25.9977931,13.7435317 26.5008995,13.3988795 26.7075129,12.8655689 C26.9140215,12.3321536 26.7743599,11.7385393 26.3515013,11.3532135 Z M22.7167393,12.167156 C22.2814745,12.167156 21.9285514,12.5200267 21.9285514,12.9553439 L21.9285514,23.9335962 L16.9140811,23.9335962 L16.9140811,17.2678941 C16.9140811,16.8326293 16.5611581,16.4797062 16.1258933,16.4797062 L10.6757394,16.4797062 C10.2404746,16.4797062 9.88755153,16.8325769 9.88755153,17.2678941 L9.88755153,23.9335962 L4.8727148,23.9335962 L4.8727148,12.9553439 C4.8727148,12.5200791 4.51984408,12.167156 4.08452694,12.167156 L1.8973148,12.167156 L13.4008687,1.685205 L17.3183042,5.2547951 C17.5490495,5.46502041 17.8821331,5.51919949 18.1675809,5.39320041 C18.4530811,5.26704429 18.63729,4.98426612 18.63729,4.67217367 L18.63729,3.23750112 L22.5110682,3.23750112 L22.5110682,9.63827541 C22.5110682,9.86006939 22.6044551,10.0714987 22.7684057,10.2208968 L24.9043179,12.167156 L22.7167393,12.167156 Z" id="Shape"></path>
            </g>
        </g>
    </g>
</svg>