<?xml version="1.0" encoding="UTF-8"?>
<svg width="27px" height="26px" viewBox="0 0 27 26" version="1.1" xmlns="http://www.w3.org/2000/svg" xmlns:xlink="http://www.w3.org/1999/xlink">
    <!-- Generator: sketchtool 64 (101010) - https://sketch.com -->
    <title>C372E4E3-2156-49C1-B971-9F2D1F90B9BD</title>
    <desc>Created with sketchtool.</desc>
    <g id="Upload" stroke="none" stroke-width="1" fill="none" fill-rule="evenodd">
        <g id="1.-Upload_Home" transform="translate(-24.000000, -618.000000)" fill="#FFFFFF" fill-rule="nonzero">
            <g id="sydney-opera-house" transform="translate(24.000000, 618.000000)">
                <path d="M26.3515013,11.3532135 L24.0873392,9.29016827 L24.0873392,2.44931327 C24.0873392,2.01404847 23.7344685,1.66112541 23.2991513,1.66112541 L17.8490498,1.66112541 C17.413785,1.66112541 17.0608619,2.01399612 17.0608619,2.44931327 L17.0608619,2.88766653 L14.3264672,0.396109286 C13.7986531,-0.0849067347 13.0027179,-0.0848543878 12.4751131,0.396056939 L0.45007898,11.3532658 C0.027325102,11.7385393 -0.112388878,12.3321536 0.0941721429,12.8655165 C0.30078551,13.3988795 0.803839592,13.7434794 1.37583459,13.7434794 L3.29639143,13.7434794 L3.29639143,24.7217317 C3.29639143,25.1569965 3.64926214,25.5099719 4.08457929,25.5099719 L10.6757394,25.5099719 C11.1110042,25.5099719 11.4639272,25.1570489 11.4639272,24.7217317 L11.4639272,18.0560819 L15.3376531,18.0560819 L15.3376531,24.7217841 C15.3376531,25.1570489 15.6905238,25.5099719 16.1258409,25.5099719 L22.7167393,25.5099719 C23.1520041,25.5099719 23.5049271,25.1571012 23.5048748,24.7217841 L23.5048748,13.7435317 L25.4258504,13.7435317 C25.9977931,13.7435317 26.5008995,13.3988795 26.7075129,12.8655689 C26.9140215,12.3321536 26.7743599,11.7385393 26.3515013,11.3532135 Z" id="Shape"></path>
            </g>
        </g>
    </g>
</svg>