<?xml version="1.0" encoding="UTF-8"?>
<svg width="17px" height="22px" viewBox="0 0 17 22" version="1.1" xmlns="http://www.w3.org/2000/svg" xmlns:xlink="http://www.w3.org/1999/xlink">
    <!-- Generator: sketchtool 64 (101010) - https://sketch.com -->
    <title>93CE083B-665A-431E-A748-F9FB162D8DCE</title>
    <desc>Created with sketchtool.</desc>
    <g id="Account" stroke="none" stroke-width="1" fill="none" fill-rule="evenodd">
        <g id="7.1.A.8.-Profile_settings" transform="translate(-16.000000, -198.000000)">
            <g id="outline-https-24px" transform="translate(12.000000, 197.000000)">
                <polygon id="Path" points="0 0 25 0 25 26 0 26"></polygon>
                <path d="M18.875,8.33333333 L17.8125,8.33333333 L17.8125,6.23809524 C17.8125,3.34666667 15.4325,1 12.5,1 C9.5675,1 7.1875,3.34666667 7.1875,6.23809524 L7.1875,8.33333333 L6.125,8.33333333 C4.95625,8.33333333 4,9.27619048 4,10.4285714 L4,20.9047619 C4,22.0571429 4.95625,23 6.125,23 L18.875,23 C20.04375,23 21,22.0571429 21,20.9047619 L21,10.4285714 C21,9.27619048 20.04375,8.33333333 18.875,8.33333333 Z M9.3125,6.23809524 C9.3125,4.49904762 10.73625,3.0952381 12.5,3.0952381 C14.26375,3.0952381 15.6875,4.49904762 15.6875,6.23809524 L15.6875,8.33333333 L9.3125,8.33333333 L9.3125,6.23809524 Z M18.875,20.9047619 L6.125,20.9047619 L6.125,10.4285714 L18.875,10.4285714 L18.875,20.9047619 Z M12.5,17.7619048 C13.66875,17.7619048 14.625,16.8190476 14.625,15.6666667 C14.625,14.5142857 13.66875,13.5714286 12.5,13.5714286 C11.33125,13.5714286 10.375,14.5142857 10.375,15.6666667 C10.375,16.8190476 11.33125,17.7619048 12.5,17.7619048 Z" id="Shape" fill="#FFFFFF" fill-rule="nonzero"></path>
            </g>
        </g>
    </g>
</svg>