<?xml version="1.0" encoding="UTF-8"?>
<svg width="20px" height="25px" viewBox="0 0 20 25" version="1.1" xmlns="http://www.w3.org/2000/svg" xmlns:xlink="http://www.w3.org/1999/xlink">
    <!-- Generator: sketchtool 64 (101010) - https://sketch.com -->
    <title>7706D23F-B893-4099-A675-4C20CD12003D</title>
    <desc>Created with sketchtool.</desc>
    <g id="Competition" stroke="none" stroke-width="1" fill="none" fill-rule="evenodd">
        <g id="1.-Competition_All" transform="translate(-328.000000, -677.000000)" fill="#8F8F8F" fill-rule="nonzero">
            <g id="user" transform="translate(328.000000, 677.000000)">
                <path d="M18.2617188,25 C17.7223633,25 17.2851562,24.562793 17.2851562,24.0234375 C17.2851562,20.2002441 14.1747559,17.0898438 10.3515625,17.0898438 L8.88671875,17.0898438 C5.06352539,17.0898438 1.953125,20.2002441 1.953125,24.0234375 C1.953125,24.562793 1.51591797,25 0.9765625,25 C0.437207031,25 0,24.562793 0,24.0234375 C0,19.123291 3.98657227,15.1367188 8.88671875,15.1367188 L10.3515625,15.1367188 C15.251709,15.1367188 19.2382812,19.123291 19.2382812,24.0234375 C19.2382812,24.562793 18.8010742,25 18.2617188,25 Z" id="Path"></path>
                <path d="M9.52148438,13.1835938 C5.88676758,13.1835938 2.9296875,10.2265137 2.9296875,6.59179688 C2.9296875,2.95708008 5.88676758,0 9.52148438,0 C13.1562012,0 16.1132812,2.95708008 16.1132812,6.59179688 C16.1132812,10.2265137 13.1562012,13.1835938 9.52148438,13.1835938 Z M9.52148438,1.953125 C6.9637207,1.953125 4.8828125,4.0340332 4.8828125,6.59179688 C4.8828125,9.14956055 6.9637207,11.2304688 9.52148438,11.2304688 C12.079248,11.2304688 14.1601562,9.14956055 14.1601562,6.59179688 C14.1601562,4.0340332 12.079248,1.953125 9.52148438,1.953125 Z" id="Shape"></path>
            </g>
        </g>
    </g>
</svg>