<?xml version="1.0" encoding="UTF-8"?>
<svg width="18px" height="21px" viewBox="0 0 18 21" version="1.1" xmlns="http://www.w3.org/2000/svg" xmlns:xlink="http://www.w3.org/1999/xlink">
    <!-- Generator: sketchtool 64 (101010) - https://sketch.com -->
    <title>CCFAFA4C-C011-48D5-A545-AF98272E7071</title>
    <desc>Created with sketchtool.</desc>
    <g id="IOS/MWeb" stroke="none" stroke-width="1" fill="none" fill-rule="evenodd">
        <g id="7.13.-Login-with-R+_Webview-Login_get-info" transform="translate(-63.000000, -357.000000)" fill="#FFFFFF" fill-rule="nonzero">
            <g id="multimedia" transform="translate(63.000000, 357.000000)">
                <path d="M8.80368841,6.39922625 C6.63128005,6.39922625 4.86397986,8.16652644 4.86397986,10.338777 C4.86397986,12.5111854 6.63128005,14.2784856 8.80368841,14.2784856 C10.975939,14.2784856 12.7432392,12.5111854 12.7432392,10.338777 C12.7432392,8.16652644 10.975939,6.39922625 8.80368841,6.39922625 Z M11.1426833,9.5968675 L8.32033505,12.4192158 C8.20186298,12.5376878 8.04647687,12.5970027 7.89124851,12.5970027 C7.73602014,12.5970027 7.58079178,12.5378456 7.46231971,12.4192158 L6.38376654,11.3406625 C6.14682241,11.1038762 6.14682241,10.7197491 6.38376654,10.482805 C6.62055288,10.2458609 7.00468,10.2458609 7.24162409,10.482805 L7.89124851,11.1324294 L10.2848257,8.73900991 C10.5216121,8.50206582 10.9057392,8.50206582 11.1426833,8.73900991 C11.3796274,8.97579625 11.3796274,9.35992337 11.1426833,9.5968675 Z" id="Shape"></path>
                <path d="M17.5870267,5.61014875 L17.5863957,5.59405798 C17.5774038,5.3954477 17.5714092,5.18532153 17.567781,4.95153245 C17.5509014,3.81145582 16.6446139,2.86841197 15.5043795,2.80468 C13.1270508,2.6720102 11.2879733,1.8968149 9.71660154,0.365196825 L9.7031926,0.35241885 C9.19065505,-0.117525531 8.41751053,-0.117525531 7.90481519,0.35241885 L7.89140625,0.365196825 C6.32003457,1.8968149 4.48095702,2.6720102 2.10362832,2.80483774 C0.963551683,2.86841197 0.05710635,3.81145582 0.0402268731,4.95169019 C0.0367563,5.18390173 0.0306039462,5.39402793 0.0216120692,5.59405798 L0.020665575,5.63144529 C-0.0255558692,8.05562649 -0.0829777846,11.0726412 0.926322115,13.8110652 C1.48129509,15.3169697 2.3217999,16.6259991 3.42433144,17.7020283 C4.68004058,18.9274489 6.32476712,19.900308 8.31276293,20.5934721 C8.3774414,20.6160307 8.44464394,20.6343299 8.51310846,20.6480544 C8.60965293,20.6673002 8.70682842,20.6769231 8.8040039,20.6769231 C8.90117938,20.6769231 8.9985126,20.6673002 9.09489933,20.6480544 C9.16336389,20.6343299 9.23103966,20.6158729 9.29603365,20.5931565 C11.2816632,19.8987305 12.9246544,18.9253981 14.1792593,17.7001352 C15.2813176,16.6237906 16.1218224,15.3144456 16.6772687,13.8082257 C17.6903546,11.0615986 17.6330904,8.03890476 17.5870267,5.61014875 Z M8.80368841,15.4917593 C5.96225211,15.4917593 3.65070615,13.1802134 3.65070615,10.338777 C3.65070615,7.49734077 5.96225211,5.18579476 8.80368841,5.18579476 C11.6449669,5.18579476 13.9566707,7.49734077 13.9566707,10.338777 C13.9566707,13.1802134 11.6449669,15.4917593 8.80368841,15.4917593 Z" id="Shape"></path>
            </g>
        </g>
    </g>
</svg>