<?xml version="1.0" encoding="UTF-8"?>
<svg width="27px" height="27px" viewBox="0 0 27 27" version="1.1" xmlns="http://www.w3.org/2000/svg" xmlns:xlink="http://www.w3.org/1999/xlink">
    <!-- Generator: sketchtool 64 (101010) - https://sketch.com -->
    <title>E0662D8A-F94D-4BC2-8140-4E81960C433D</title>
    <desc>Created with sketchtool.</desc>
    <g id="Competition" stroke="none" stroke-width="1" fill="none" fill-rule="evenodd">
        <g id="1.-Competition_All" transform="translate(-249.000000, -675.000000)" fill="#8F8F8F" fill-rule="nonzero">
            <g id="tools-and-utensils" transform="translate(249.000000, 675.000000)">
                <path d="M26.6183684,25.0308947 L18.9552105,17.3677368 C20.4395789,15.5342105 21.3333158,13.2043684 21.3333158,10.6668421 C21.3333158,4.78557895 16.5478947,0.000157894737 10.6666316,0.000157894737 C4.78536842,0.000157894737 0,4.78552632 0,10.6667895 C0,16.5480526 4.78542105,21.3334737 10.6666842,21.3334737 C13.2042105,21.3334737 15.5340526,20.4397368 17.3675789,18.9553684 L25.0307368,26.6185263 C25.2496842,26.8374737 25.5371053,26.9475263 25.8245789,26.9475263 C26.1120526,26.9475263 26.3994737,26.8374737 26.6184211,26.6185263 C27.0574211,26.1795263 27.0574211,25.4698947 26.6183684,25.0308947 Z M10.6666842,19.0878421 C6.02273684,19.0878421 2.24563158,15.3107368 2.24563158,10.6667895 C2.24563158,6.02284211 6.02273684,2.24573684 10.6666842,2.24573684 C15.3106316,2.24573684 19.0877368,6.02284211 19.0877368,10.6667895 C19.0877368,15.3107368 15.3105789,19.0878421 10.6666842,19.0878421 Z" id="Shape"></path>
            </g>
        </g>
    </g>
</svg>