<?xml version="1.0" encoding="UTF-8"?>
<svg width="27px" height="27px" viewBox="0 0 27 27" version="1.1" xmlns="http://www.w3.org/2000/svg" xmlns:xlink="http://www.w3.org/1999/xlink">
    <!-- Generator: sketchtool 64 (101010) - https://sketch.com -->
    <title>D957A544-4E81-48C4-A790-1A595A3D054D</title>
    <desc>Created with sketchtool.</desc>
    <g id="Search" stroke="none" stroke-width="1" fill="none" fill-rule="evenodd">
        <g id="2.2-click-button-search_video" transform="translate(-248.000000, -617.000000)" fill="#FFFFFF" fill-rule="nonzero">
            <path d="M274.618368,642.030895 L266.955211,634.367737 C268.439579,632.534211 269.333316,630.204368 269.333316,627.666842 C269.333316,621.785579 264.547895,617.000158 258.666632,617.000158 C252.785368,617.000158 248,621.785526 248,627.666789 C248,633.548053 252.785421,638.333474 258.666684,638.333474 C261.204211,638.333474 263.534053,637.439737 265.367579,635.955368 L273.030737,643.618526 C273.249684,643.837474 273.537105,643.947526 273.824579,643.947526 C274.112053,643.947526 274.399474,643.837474 274.618421,643.618526 C275.057421,643.179526 275.057421,642.469895 274.618368,642.030895 Z M258.666684,636.087842 C254.022737,636.087842 250.245632,632.310737 250.245632,627.666789 C250.245632,623.022842 254.022737,619.245737 258.666684,619.245737 C263.310632,619.245737 267.087737,623.022842 267.087737,627.666789 C267.087737,632.310737 263.310579,636.087842 258.666684,636.087842 Z" id="Shape"></path>
        </g>
    </g>
</svg>