<?xml version="1.0" encoding="UTF-8"?>
<svg width="9px" height="8px" viewBox="0 0 9 8" version="1.1" xmlns="http://www.w3.org/2000/svg" xmlns:xlink="http://www.w3.org/1999/xlink">
    <!-- Generator: sketchtool 64 (101010) - https://sketch.com -->
    <title>C6AE1C9C-1F49-4497-AB56-614EBD92C203</title>
    <desc>Created with sketchtool.</desc>
    <g id="Home" stroke="none" stroke-width="1" fill="none" fill-rule="evenodd">
        <g id="home---(default)-content" transform="translate(-21.000000, -1224.000000)" fill="#FFFFFF" fill-rule="nonzero">
            <path d="M21.9370065,1231.53333 C21.9122872,1231.53333 21.8874855,1231.53071 21.8627662,1231.5246 C21.7102481,1231.49037 21.6,1231.36459 21.6,1231.21371 L21.6,1230.5632 C21.6,1228.23176 23.5683155,1226.33484 25.9875112,1226.33484 L26.099984,1226.33484 L26.099984,1224.92534 C26.099984,1224.79265 26.1837,1224.67337 26.3114988,1224.62351 C26.4388032,1224.57411 26.5850591,1224.60397 26.6804756,1224.69982 L29.6055105,1227.62714 C29.7314965,1227.75292 29.7314965,1227.9524 29.6055105,1228.07818 L26.6804756,1231.0055 C26.5850591,1231.10135 26.4378968,1231.13089 26.3114988,1231.08182 C26.1837,1231.03195 26.099984,1230.91267 26.099984,1230.77998 L26.099984,1229.37056 L25.5653879,1229.37056 C24.1497135,1229.37056 22.8774935,1230.12859 22.2448442,1231.34855 C22.1867538,1231.46131 22.0648053,1231.53333 21.9370065,1231.53333 L21.9370065,1231.53333 Z M25.9875112,1226.98536 C24.0974734,1226.98536 22.532412,1228.35357 22.3033465,1230.11644 C23.1213906,1229.23699 24.2945686,1228.72004 25.5653879,1228.72004 L26.4374848,1228.72004 C26.623786,1228.72004 26.7749857,1228.86576 26.7749857,1229.0453 L26.7749857,1229.97335 L28.8940066,1227.85266 L26.7749857,1225.73197 L26.7749857,1226.6601 C26.7749857,1226.83964 26.623786,1226.98536 26.4374848,1226.98536 L25.9875112,1226.98536 Z" id="Shape" transform="translate(25.650000, 1228.066667) scale(-1, 1) translate(-25.650000, -1228.066667) "></path>
        </g>
    </g>
</svg>