<?xml version="1.0" encoding="UTF-8"?>
<svg width="9px" height="8px" viewBox="0 0 9 8" version="1.1" xmlns="http://www.w3.org/2000/svg" xmlns:xlink="http://www.w3.org/1999/xlink">
    <!-- Generator: sketchtool 64 (101010) - https://sketch.com -->
    <title>95EAE9E7-E53A-41C8-A30B-DB40957E649A</title>
    <desc>Created with sketchtool.</desc>
    <g id="Home" stroke="none" stroke-width="1" fill="none" fill-rule="evenodd">
        <g id="home---(default)-content" transform="translate(-193.000000, -953.000000)" fill="#FFFFFF" fill-rule="nonzero">
            <path d="M193.937006,960.533333 C193.912287,960.533333 193.887485,960.530713 193.862766,960.524598 C193.710248,960.490373 193.6,960.36459 193.6,960.213713 L193.6,959.563197 C193.6,957.231758 195.568316,955.334843 197.987511,955.334843 L198.099984,955.334843 L198.099984,953.925338 C198.099984,953.792646 198.1837,953.673374 198.311499,953.623506 C198.438803,953.574113 198.585059,953.603971 198.680476,953.699817 L201.60551,956.62714 C201.731497,956.752923 201.731497,956.952398 201.60551,957.078181 L198.680476,960.005504 C198.585059,960.10135 198.437897,960.13089 198.311499,960.081815 C198.1837,960.031947 198.099984,959.912675 198.099984,959.779983 L198.099984,958.370558 L197.565388,958.370558 C196.149714,958.370558 194.877493,959.128593 194.244844,960.348549 C194.186754,960.46131 194.064805,960.533333 193.937006,960.533333 L193.937006,960.533333 Z" id="Path" transform="translate(197.650000, 957.066667) scale(-1, 1) translate(-197.650000, -957.066667) "></path>
        </g>
    </g>
</svg>