<?xml version="1.0" encoding="UTF-8"?>
<svg width="22px" height="22px" viewBox="0 0 22 22" version="1.1" xmlns="http://www.w3.org/2000/svg" xmlns:xlink="http://www.w3.org/1999/xlink">
    <!-- Generator: sketchtool 64 (101010) - https://sketch.com -->
    <title>12B01923-727A-4CF4-A7DE-AFF6841D3EDA</title>
    <desc>Created with sketchtool.</desc>
    <g id="Account" stroke="none" stroke-width="1" fill="none" fill-rule="evenodd">
        <g id="7.1.A.7.A.-Profile_Other-User" transform="translate(-338.000000, -43.000000)" fill="#FFFFFF" fill-rule="nonzero">
            <g id="share" transform="translate(338.000000, 43.000000)">
                <path d="M18.960522,21.414277 L2.45375499,21.414277 C1.10017886,21.414277 0.000163376721,20.3140981 0.000163376721,18.9606854 L0.000163376721,6.02288282 C0.000163376721,4.66930669 1.10017886,3.56929124 2.45375499,3.56929124 L5.57670102,3.56929124 C5.94609578,3.56929124 6.24589207,3.86908749 6.24589207,4.23848229 C6.24589207,4.60787704 5.94609578,4.90767334 5.57670102,4.90767334 L2.45375499,4.90767334 C1.83896837,4.90767334 1.33854547,5.40809625 1.33854547,6.02288282 L1.33854547,18.9606854 C1.33854547,19.5753086 1.83896837,20.0758949 2.45375499,20.0758949 L18.960522,20.0758949 C19.5753086,20.0758949 20.0758949,19.5753086 20.0758949,18.9606854 L20.0758949,11.3764112 C20.0758949,11.0070165 20.3756912,10.7072202 20.7450859,10.7072202 C21.1144807,10.7072202 21.414277,11.0070165 21.414277,11.3764112 L21.414277,18.9606854 C21.414277,20.3140981 20.3140981,21.414277 18.960522,21.414277 L18.960522,21.414277 Z" id="Path"></path>
                <path d="M6.02190258,14.2647483 C5.97288956,14.2647483 5.92371314,14.2593569 5.87470016,14.2467768 C5.57228984,14.1763615 5.35369177,13.9175728 5.35369177,13.607157 L5.35369177,12.2687749 C5.35369177,7.47203435 9.25643488,3.56929124 14.0531754,3.56929124 L14.2761847,3.56929124 L14.2761847,0.669354416 C14.2761847,0.396351905 14.4421754,0.15096009 14.6955727,0.0483595095 C14.9479897,-0.053260832 15.2379834,0.00816881515 15.4271737,0.205364528 L21.2268839,6.22808398 C21.4766869,6.4868727 21.4766869,6.89727503 21.2268839,7.15606375 L15.4271737,13.1787832 C15.2379834,13.3759789 14.9461926,13.4367551 14.6955727,13.3357882 C14.4421754,13.2331877 14.2761847,12.9877958 14.2761847,12.7147933 L14.2761847,9.8150199 L13.2161965,9.8150199 C10.409221,9.8150199 7.88668445,11.3746141 6.63227801,13.8845706 C6.51709739,14.1165656 6.27529984,14.2647483 6.02190258,14.2647483 L6.02190258,14.2647483 Z M14.0531754,4.90767334 C10.3056402,4.90767334 7.20246274,7.72265422 6.74827546,11.3496174 C8.37027955,9.54022024 10.6964373,8.4766378 13.2161965,8.4766378 L14.9453757,8.4766378 C15.3147705,8.4766378 15.6145668,8.7764341 15.6145668,9.14582885 L15.6145668,11.0552126 L19.8161259,6.69207387 L15.6145668,2.32893517 L15.6145668,4.23848229 C15.6145668,4.60787704 15.3147705,4.90767334 14.9453757,4.90767334 L14.0531754,4.90767334 Z" id="Shape"></path>
            </g>
        </g>
    </g>
</svg>