<?xml version="1.0" encoding="UTF-8"?>
<svg width="21px" height="21px" viewBox="0 0 21 21" version="1.1" xmlns="http://www.w3.org/2000/svg" xmlns:xlink="http://www.w3.org/1999/xlink">
    <!-- Generator: sketchtool 64 (101010) - https://sketch.com -->
    <title>87E4A4BD-1423-4D50-AEA5-9C6DAA58C2CA</title>
    <desc>Created with sketchtool.</desc>
    <defs>
        <linearGradient x1="41.478781%" y1="13.5705911%" x2="90.2545654%" y2="92.4223531%" id="linearGradient-1">
            <stop stop-color="#EDA127" offset="0%"></stop>
            <stop stop-color="#FFE900" offset="100%"></stop>
        </linearGradient>
    </defs>
    <g id="Competition" stroke="none" stroke-width="1" fill="none" fill-rule="evenodd">
        <g id="4.1-Competition_Leaderboard" transform="translate(-252.000000, -418.000000)">
            <g id="Group-7" transform="translate(252.000000, 418.000000)">
                <circle id="Oval" fill="#F8F8F8" cx="10.5" cy="10.5" r="10.5"></circle>
                <g id="star" transform="translate(5.250000, 5.250000)" fill-rule="nonzero">
                    <polygon id="Path" fill="#E7A400" points="5.24780137 0.184767123 6.81141781 3.35295205 10.3078151 3.86093836 7.77780822 6.32706164 8.37503425 9.80936301 5.24780137 8.16515753 2.12056849 9.80936301 2.71781507 6.32706164 0.187808219 3.86093836 3.68418493 3.35295205"></polygon>
                    <path d="M9.56874658,3.861 L6.07243151,3.35293151 L4.87208219,0.936226027 L3.74488356,3.35295205 L0.248547945,3.861 L2.7785137,6.32712329 L2.18124658,9.80930137 L4.68419178,8.2630274 L5.02006849,8.38896575 C5.02066438,8.38647945 5.01984247,8.38364384 5.02052055,8.38121918 C5.05282192,8.27494521 5.16267123,8.21256164 5.2704863,8.23927397 C5.50746575,8.28 5.7325274,8.37250685 5.92962329,8.51026027 C5.9584726,8.53220548 5.98216438,8.56021233 5.9990137,8.59230822 C6.02997945,8.6055 6.05640411,8.62744521 6.07506164,8.6554726 C6.10058219,8.64458219 6.12803425,8.63899315 6.15579452,8.63905479 C6.24156164,8.63531507 6.31816438,8.69231507 6.33922603,8.77555479 C6.40709589,8.73569178 6.49226712,8.7405 6.55522603,8.78773973 C6.61818493,8.83497945 6.64662329,8.91540411 6.62732877,8.99171918 L7.69004795,9.39024658 L7.03878082,6.32712329 L9.56874658,3.861 Z" id="Path" fill="url(#linearGradient-1)"></path>
                    <path d="M3.68665068,3.35295205 L0.190335616,3.861 L2.72030137,6.32712329 L2.12305479,9.80932192 L3.02159589,9.33694521 C3.01699315,9.32983562 3.01282192,9.3224589 3.00912329,9.31483562 L2.808,9.39024658 L3.45928767,6.32714384 L0.929321918,3.861 L3.5570137,3.37849315 L3.68665068,3.35295205 Z" id="Path" fill="#FFFFFF"></path>
                    <path d="M8.37495205,9.99713014 C8.3444589,9.99713014 8.31441781,9.98969178 8.28743836,9.9754726 L5.24780137,8.3775 L2.20816438,9.9754726 C2.14487671,10.0087808 2.06817123,10.0032534 2.01030822,9.96123288 C1.95244521,9.91921233 1.92345205,9.84799315 1.93553425,9.7775137 L2.5160137,6.39279452 L0.0566917808,3.9954863 C0.00550684932,3.94557534 -0.0129041096,3.87092466 0.00920547945,3.80293151 C0.0313150685,3.73493836 0.0901232877,3.68539726 0.160890411,3.67516438 L3.55937671,3.18127397 L5.07936986,0.101650685 C5.1144863,0.0419794521 5.17855479,0.00532191781 5.24780137,0.00532191781 C5.31704795,0.00532191781 5.38111644,0.0419589041 5.41623288,0.101650685 L6.93622603,3.18127397 L10.3347123,3.67516438 C10.4054795,3.68539726 10.4642877,3.73493836 10.4863973,3.80293151 C10.5085068,3.87092466 10.4901164,3.94557534 10.438911,3.9954863 L7.97958904,6.39281507 L8.56006849,9.77753425 C8.56939726,9.83210959 8.55421233,9.88802055 8.51852055,9.93034932 C8.48282877,9.97265753 8.43030822,9.99713014 8.37495205,9.99713014 L8.37495205,9.99713014 Z M5.24780137,7.97739041 C5.27829452,7.97736986 5.30833562,7.98480822 5.33531507,7.99904795 L8.12543836,9.46584247 L7.59267123,6.35889041 C7.58221233,6.2979863 7.60236986,6.23582877 7.64660959,6.19267808 L9.90394521,3.99221918 L6.78452055,3.53889041 C6.72330822,3.53005479 6.67039726,3.49163014 6.64306849,3.43615068 L5.24780137,0.609308219 L3.85255479,3.43610959 C3.82522603,3.49158904 3.77231507,3.5300137 3.71110274,3.53884932 L0.591678082,3.99217808 L2.8490137,6.19263699 C2.89323288,6.23578767 2.91341096,6.29794521 2.90295205,6.35884932 L2.37018493,9.46584247 L5.16030822,7.9990274 C5.18726712,7.98480822 5.21730822,7.97736986 5.24780137,7.97739041 Z" id="Shape" fill="#494646"></path>
                </g>
            </g>
        </g>
    </g>
</svg>