<?xml version="1.0" encoding="UTF-8"?>
<svg width="26px" height="25px" viewBox="0 0 26 25" version="1.1" xmlns="http://www.w3.org/2000/svg" xmlns:xlink="http://www.w3.org/1999/xlink">
    <!-- Generator: sketchtool 64 (101010) - https://sketch.com -->
    <title>9BC55DB5-130D-4D01-8EA1-749304869EAD</title>
    <desc>Created with sketchtool.</desc>
    <g id="Account" stroke="none" stroke-width="1" fill="none" fill-rule="evenodd">
        <g id="7.1.A.8.-Profile_settings" transform="translate(-11.000000, -99.000000)">
            <g id="top" transform="translate(9.000000, 97.000000)">
                <g id="baseline-account_circle-24px">
                    <g id="Group">
                        <path d="M15,2.41666667 C8.1,2.41666667 2.5,7.83 2.5,14.5 C2.5,21.17 8.1,26.5833333 15,26.5833333 C21.9,26.5833333 27.5,21.17 27.5,14.5 C27.5,7.83 21.9,2.41666667 15,2.41666667 L15,2.41666667 Z M15,6.04166667 C17.075,6.04166667 18.75,7.66083333 18.75,9.66666667 C18.75,11.6725 17.075,13.2916667 15,13.2916667 C12.925,13.2916667 11.25,11.6725 11.25,9.66666667 C11.25,7.66083333 12.925,6.04166667 15,6.04166667 L15,6.04166667 Z M15,23.2 C11.875,23.2 9.1125,21.6533333 7.5,19.3091667 C7.5375,16.9045833 12.5,15.5875 15,15.5875 C17.4875,15.5875 22.4625,16.9045833 22.5,19.3091667 C20.8875,21.6533333 18.125,23.2 15,23.2 L15,23.2 Z" id="Shape" fill="#D8D8D8"></path>
                        <polygon id="Shape" points="0 0 30 0 30 29 0 29"></polygon>
                    </g>
                </g>
            </g>
        </g>
    </g>
</svg>